# File created by Blade
# Date/Time:  Tue Apr 07 20:13:55 2015
# Frame Rate: 120.000 fps
#------------------------------------------------------
:FULLY-SPECIFIED
:DEGREES
4427
root 2.598934 32.777041 -10.491293 13.648291 2.601327 -3.385203
Spine -7.913002 -7.775405 -2.084303
Head 3.011566 -4.141297 6.732841
LeftShoulder -17.104285 48.835460 10.267810
LeftArm 48.559020 0.166914 -85.924991
LeftForeArm -6.873702 -0.000000 38.243317
LeftHand 10.796515 -0.000000 20.143416
LeftHandThumb1 -26.253704 0.000000 33.147579
RightShoulder -4.047784 -9.988294 -16.753965
RightArm 9.781622 5.447012 89.038318
RightForeArm 6.804412 -0.000000 58.887656
RightHand 3.534350 0.000000 -3.013201
RightHandThumb1 -24.326973 -0.000000 -32.862282
LeftUpLeg -16.751180 -2.084552 0.090835
LeftLeg 10.293176 -0.000000 -0.000000
LeftFoot -11.004784 3.271162 -18.498400
LeftToeBase -2.943078 -0.000000 0.000000
RightUpLeg -19.465607 -1.632565 4.568816
RightLeg 13.281436 -0.000000 -0.000000
RightFoot -11.735498 -12.176113 7.289735
RightToeBase 1.480004 -0.000000 -0.000000
4428
root 2.597176 32.776841 -10.480007 13.641885 2.664605 -3.362120
Spine -7.945827 -7.761653 -2.067076
Head 2.971299 -4.175250 6.710641
LeftShoulder -17.145640 48.841580 10.222375
LeftArm 48.545729 0.105487 -85.840988
LeftForeArm -6.984019 -0.000000 38.165276
LeftHand 10.779416 0.000000 19.893061
LeftHandThumb1 -26.253704 0.000000 33.147579
RightShoulder -4.067969 -10.009384 -16.726610
RightArm 9.754449 5.419271 89.026282
RightForeArm 6.819742 -0.000000 58.717905
RightHand 3.551967 0.000000 -3.059187
RightHandThumb1 -24.326973 -0.000000 -32.862282
LeftUpLeg -16.718563 -2.113552 0.076082
LeftLeg 10.271309 -0.000000 -0.000000
LeftFoot -10.975941 3.263774 -18.440485
LeftToeBase -3.108026 -0.000000 0.000000
RightUpLeg -19.428491 -1.591519 4.541387
RightLeg 13.265726 -0.000000 -0.000000
RightFoot -11.737745 -12.283842 7.242377
RightToeBase 1.460909 -0.000000 -0.000000
4429
root 2.593528 32.776680 -10.469065 13.638019 2.732858 -3.341604
Spine -7.978701 -7.750484 -2.053258
Head 2.924055 -4.196542 6.711864
LeftShoulder -17.210451 48.850947 10.176405
LeftArm 48.564600 0.066371 -85.730797
LeftForeArm -7.103924 -0.000000 38.071930
LeftHand 10.744294 0.000000 19.844752
LeftHandThumb1 -26.253704 0.000000 33.147579
RightShoulder -4.086865 -10.084974 -16.680143
RightArm 9.769917 5.405701 89.016664
RightForeArm 6.820406 -0.000000 58.584300
RightHand 3.582523 -0.000000 -3.107872
RightHandThumb1 -24.326973 -0.000000 -32.862282
LeftUpLeg -16.692889 -2.121912 0.064045
LeftLeg 10.257060 -0.000000 -0.000000
LeftFoot -10.929625 3.231818 -18.359337
LeftToeBase -3.273695 -0.000000 0.000000
RightUpLeg -19.384017 -1.555853 4.519724
RightLeg 13.228329 -0.000000 -0.000000
RightFoot -11.744745 -12.376841 7.215258
RightToeBase 1.390656 -0.000000 -0.000000
4430
root 2.590017 32.776474 -10.458384 13.644331 2.787068 -3.309965
Spine -8.024372 -7.720202 -2.053908
Head 2.886643 -4.214373 6.709193
LeftShoulder -17.259927 48.868431 10.145588
LeftArm 48.587031 0.023420 -85.618015
LeftForeArm -7.190070 -0.000000 37.985208
LeftHand 10.724377 -0.000000 19.631671
LeftHandThumb1 -26.253704 0.000000 33.147579
RightShoulder -4.106393 -10.123168 -16.640415
RightArm 9.731447 5.402225 89.016390
RightForeArm 6.790052 -0.000000 58.422797
RightHand 3.402399 -0.000000 -2.788847
RightHandThumb1 -24.326973 -0.000000 -32.862282
LeftUpLeg -16.672559 -2.125748 0.041216
LeftLeg 10.234361 -0.000000 -0.000000
LeftFoot -10.883850 3.195905 -18.299452
LeftToeBase -3.317580 -0.000000 0.000000
RightUpLeg -19.363917 -1.521177 4.489065
RightLeg 13.220725 -0.000000 -0.000000
RightFoot -11.767269 -12.462447 7.181879
RightToeBase 1.390685 -0.000000 -0.000000
